
<global>
ampeg_attack=0.002
ampeg_release=0.35
</global>

<group>
ampeg_attack=0.002
ampeg_release=0.035
group_label=Sustains

<region>
end=255342
hikey=D#2
hivel=127
lokey=C2
lovel=0
offset=955
pitch_keycenter=D2
sample=Taylor_Acc_Picked_sustain_D2_RR1.opus
volume=+5.83
</region>

<region>
end=233724
hikey=F2
hivel=127
lokey=E2
lovel=0
offset=326
pitch_keycenter=E2
sample=Taylor_Acc_Picked_sustain_E2_RR1.opus
volume=+9.01
</region>

<region>
end=120769
hikey=G2
hivel=127
lokey=F#2
lovel=0
offset=2638
pitch_keycenter=F#2
sample=Taylor_Acc_Picked_sustain_F#2_RR1.opus
volume=+5.01
</region>

<region>
end=151448
hikey=A2
hivel=127
lokey=G#2
lovel=0
offset=2928
pitch_keycenter=G#2
sample=Taylor_Acc_Picked_sustain_G#2_RR1.opus
volume=+5.36
</region>

<region>
end=320008
hikey=B2
hivel=127
lokey=A#2
lovel=0
offset=1271
pitch_keycenter=A#2
sample=Taylor_Acc_Picked_sustain_A#2_RR1.opus
volume=+8.13
</region>

<region>
end=283859
hikey=C#3
hivel=127
lokey=C3
lovel=0
offset=708
pitch_keycenter=C3
sample=Taylor_Acc_Picked_sustain_C3_RR1.opus
volume=+9.69
</region>

<region>
end=285814
hikey=D#3
hivel=127
lokey=D3
lovel=0
offset=57
pitch_keycenter=D3
sample=Taylor_Acc_Picked_sustain_D3_RR1.opus
volume=+3.19
</region>

<region>
end=246554
hikey=F3
hivel=127
lokey=E3
lovel=0
offset=1276
pitch_keycenter=E3
sample=Taylor_Acc_Picked_sustain_E3_RR1.opus
volume=+5.73
</region>

<region>
end=177622
hikey=G3
hivel=127
lokey=F#3
lovel=0
offset=914
pitch_keycenter=F#3
sample=Taylor_Acc_Picked_sustain_F#3_RR1.opus
volume=+4.47
</region>

<region>
end=293083
hikey=A3
hivel=127
lokey=G#3
lovel=0
offset=859
pitch_keycenter=G#3
sample=Taylor_Acc_Picked_sustain_G#3_RR1.opus
volume=+9.05
</region>

<region>
end=136938
hikey=B3
hivel=127
lokey=A#3
lovel=0
offset=702
pitch_keycenter=A#3
sample=Taylor_Acc_Picked_sustain_A#3_RR1.opus
volume=+8.07
</region>

<region>
end=174578
hikey=C#4
hivel=127
lokey=C4
lovel=0
offset=639
sample=Taylor_Acc_Picked_sustain_C4_RR1.opus
volume=+8.75
</region>

<region>
end=228659
hikey=D#4
hivel=127
lokey=D4
lovel=0
offset=857
pitch_keycenter=D4
sample=Taylor_Acc_Picked_sustain_D4_RR1.opus
volume=+9.80
</region>

<region>
end=171363
hikey=F4
hivel=127
lokey=E4
lovel=0
offset=928
pitch_keycenter=E4
sample=Taylor_Acc_Picked_sustain_E4_RR1.opus
volume=+5.51
</region>

<region>
end=128936
hikey=G4
hivel=127
lokey=F#4
lovel=0
offset=1068
pitch_keycenter=F#4
sample=Taylor_Acc_Picked_sustain_F#4_RR1.opus
volume=+4.18
</region>

<region>
end=120204
hikey=A4
hivel=127
lokey=G#4
lovel=0
offset=973
pitch_keycenter=G#4
sample=Taylor_Acc_Picked_sustain_G#4_RR1.opus
volume=+4.77
</region>

<region>
end=264055
hikey=B4
hivel=127
lokey=A#4
lovel=0
offset=955
pitch_keycenter=A#4
sample=Taylor_Acc_Picked_sustain_A#4_RR1.opus
volume=+8.98
</region>

<region>
end=106574
hikey=C#5
hivel=127
lokey=C5
lovel=0
offset=1204
pitch_keycenter=C5
sample=Taylor_Acc_Picked_sustain_C5_RR1.opus
volume=+3.97
</region>

<region>
end=116878
hikey=D#5
hivel=127
lokey=D5
lovel=0
offset=1426
pitch_keycenter=D5
sample=Taylor_Acc_Picked_sustain_D5_RR1.opus
volume=-2.37
</region>

<region>
end=85672
hikey=F5
hivel=127
lokey=E5
lovel=0
offset=13093
pitch_keycenter=E5
sample=Taylor_Acc_Picked_sustain_E5_RR1.opus
volume=+3.92
</region>

<region>
end=87456
hikey=G5
hivel=127
lokey=F#5
lovel=0
offset=1455
pitch_keycenter=F#5
sample=Taylor_Acc_Picked_sustain_F#5_RR1.opus
volume=+3.86
</region>

<region>
end=203545
hivel=127
key=G#5
lovel=0
offset=1378
sample=Taylor_Acc_Picked_sustain_G#5_RR1.opus
volume=+1.53
</region>

<region>
end=195750
hikey=A#5
hivel=127
lokey=A5
lovel=0
offset=1945
pitch_keycenter=A5
sample=Taylor_Acc_Picked_sustain_A5_RR1.opus
volume=+5.80
</region>
</group>

<group>
ampeg_attack=0.035
ampeg_release=2.5
group_label=Releases
rt_decay=2
trigger=release

<region>
hikey=D#2
hivel=127
lokey=C2
lovel=0
offset=86538
pitch_keycenter=D2
sample=Taylor_Acc_Picked_Fall_01_D2.opus
volume=+12.41
</region>

<region>
hikey=F2
hivel=127
lokey=E2
lovel=0
offset=82193
pitch_keycenter=E2
sample=Taylor_Acc_Picked_Fall_02_E2.opus
volume=+8.25
</region>

<region>
end=119013
hikey=G2
hivel=127
lokey=F#2
lovel=0
offset=88179
pitch_keycenter=F#2
sample=Taylor_Acc_Picked_Fall_03_F#2.opus
volume=+6.60
</region>

<region>
end=118124
hikey=A2
hivel=127
lokey=G#2
lovel=0
offset=80557
pitch_keycenter=G#2
sample=Taylor_Acc_Picked_Fall_04_G#2.opus
volume=+5.88
</region>

<region>
end=116389
hikey=B2
hivel=127
lokey=A#2
lovel=0
offset=81961
pitch_keycenter=A#2
sample=Taylor_Acc_Picked_Fall_05_A#2.opus
volume=+8.21
</region>

<region>
hikey=C#3
hivel=127
lokey=C3
lovel=0
offset=81310
pitch_keycenter=C3
sample=Taylor_Acc_Picked_Fall_06_C3.opus
volume=+7.01
</region>

<region>
hikey=D#3
hivel=127
lokey=D3
lovel=0
offset=88244
pitch_keycenter=D3
sample=Taylor_Acc_Picked_Fall_07_D3.opus
volume=+5.04
</region>

<region>
hikey=F3
hivel=127
lokey=E3
lovel=0
offset=81716
pitch_keycenter=E3
sample=Taylor_Acc_Picked_Fall_08_E3.opus
volume=+4.84
</region>

<region>
hikey=G3
hivel=127
lokey=F#3
lovel=0
offset=80641
pitch_keycenter=F#3
sample=Taylor_Acc_Picked_Fall_09_F#3.opus
volume=+3.04
</region>

<region>
hikey=A3
hivel=127
lokey=G#3
lovel=0
offset=81912
pitch_keycenter=G#3
sample=Taylor_Acc_Picked_Fall_10_G#3.opus
volume=+3.81
</region>

<region>
hikey=B3
hivel=127
lokey=A#3
lovel=0
offset=82269
pitch_keycenter=A#3
sample=Taylor_Acc_Picked_Fall_11_A#3.opus
volume=+7.14
</region>

<region>
hikey=C#4
hivel=127
lokey=C4
lovel=0
offset=84736
sample=Taylor_Acc_Picked_Fall_12_C4.opus
volume=+2.33
</region>

<region>
hikey=D#4
hivel=127
lokey=D4
lovel=0
offset=83211
pitch_keycenter=D4
sample=Taylor_Acc_Picked_Fall_13_D4.opus
volume=+3.96
</region>

<region>
hikey=F4
hivel=127
lokey=E4
lovel=0
offset=90637
pitch_keycenter=E4
sample=Taylor_Acc_Picked_Fall_14_E4.opus
volume=+9.31
</region>

<region>
hikey=G4
hivel=127
lokey=F#4
lovel=0
offset=83474
pitch_keycenter=F#4
sample=Taylor_Acc_Picked_Fall_15_F#4.opus
volume=+3.23
</region>

<region>
hikey=A4
hivel=127
lokey=G#4
lovel=0
offset=79834
pitch_keycenter=G#4
sample=Taylor_Acc_Picked_Fall_16_G#4.opus
volume=+7.42
</region>

<region>
hikey=B4
hivel=127
lokey=A#4
lovel=0
offset=87665
pitch_keycenter=A#4
sample=Taylor_Acc_Picked_Fall_17_A#4.opus
volume=+7.02
</region>

<region>
hikey=C#5
hivel=127
lokey=C5
lovel=0
offset=80290
pitch_keycenter=C5
sample=Taylor_Acc_Picked_Fall_18_C5.opus
volume=+8.44
</region>

<region>
end=102127
hikey=D#5
hivel=127
lokey=D5
lovel=0
offset=38119
pitch_keycenter=D5
sample=Taylor_Acc_Picked_Fall_19_D5.opus
volume=+2.48
</region>

<region>
end=96976
hikey=F5
hivel=127
lokey=E5
lovel=0
offset=39136
pitch_keycenter=E5
sample=Taylor_Acc_Picked_Fall_20_E5.opus
volume=+0.81
</region>

<region>
end=100823
hikey=G5
hivel=127
lokey=F#5
lovel=0
offset=40526
pitch_keycenter=F#5
sample=Taylor_Acc_Picked_Fall_21_F#5.opus
volume=+0.28
</region>

<region>
end=92773
hikey=A5
hivel=127
lokey=G#5
lovel=0
offset=36869
pitch_keycenter=G#5
sample=Taylor_Acc_Picked_Fall_22_G#5.opus
volume=+2.19
</region>

<region>
hivel=127
key=A#5
lovel=0
offset=37712
sample=Taylor_Acc_Picked_Fall_23_A#5.opus
tune=100
volume=+0.59
</region>
</group>